<?xml version="1.0" encoding="UTF-8" standalone="no"?>
<svg
   style="height: 512px; width: 512px;"
   viewBox="0 0 512 512"
   version="1.1"
   id="svg8"
   sodipodi:docname="barbute.svg"
   inkscape:version="1.2.1 (9c6d41e410, 2022-07-14)"
   xmlns:inkscape="http://www.inkscape.org/namespaces/inkscape"
   xmlns:sodipodi="http://sodipodi.sourceforge.net/DTD/sodipodi-0.dtd"
   xmlns="http://www.w3.org/2000/svg"
   xmlns:svg="http://www.w3.org/2000/svg">
  <defs
     id="defs12" />
  <sodipodi:namedview
     id="namedview10"
     pagecolor="#505050"
     bordercolor="#eeeeee"
     borderopacity="1"
     inkscape:showpageshadow="0"
     inkscape:pageopacity="0"
     inkscape:pagecheckerboard="0"
     inkscape:deskcolor="#505050"
     showgrid="false"
     inkscape:zoom="1.0097656"
     inkscape:cx="208.95938"
     inkscape:cy="256.99033"
     inkscape:window-width="1280"
     inkscape:window-height="698"
     inkscape:window-x="-6"
     inkscape:window-y="-6"
     inkscape:window-maximized="1"
     inkscape:current-layer="g6" />
  <g
     class=""
     style=""
     transform="translate(0,0)"
     id="g6">
    <path
       d="M 255.406,17.75 C 189.313,39.42 124.536,85.124 79.03,150.344 c 21.238,57.44 32.72,94.314 32.72,131.375 0,36.493 -11.52,73.723 -32.125,129.655 49.72,36.73 100.08,58.95 150.313,64.938 -5.052,-60.378 -9.83,-120.748 1.593,-181.125 -30.644,-3.28 -61.384,-13.286 -92.03,-30.72 v -71.312 c 80.67,42.255 158.908,41.547 242.063,0 v 71.313 c -30.06,14.376 -60.192,24.722 -90.25,29.28 8.684,60.46 7.723,120.915 2.03,181.375 46.386,-7.335 92.89,-28.824 139.032,-64.312 C 398.41,297.857 398.346,264.878 432.97,150.341 391.162,84.844 317.924,39.89 255.405,17.75 Z"
       fill="#ffffff"
       fill-opacity="1"
       id="path4"
       sodipodi:nodetypes="ccsccccccccccccc"
       style="fill:#fc6d06;fill-opacity:1" />
  </g>
</svg>
