<?xml version="1.0" encoding="UTF-8" standalone="no"?>
<svg
   viewBox="0 0 512 512"
   style="height: 512px; width: 512px;"
   version="1.1"
   id="svg8"
   sodipodi:docname="leather-armor.svg"
   inkscape:version="1.2.1 (9c6d41e410, 2022-07-14)"
   xmlns:inkscape="http://www.inkscape.org/namespaces/inkscape"
   xmlns:sodipodi="http://sodipodi.sourceforge.net/DTD/sodipodi-0.dtd"
   xmlns="http://www.w3.org/2000/svg"
   xmlns:svg="http://www.w3.org/2000/svg">
  <defs
     id="defs12" />
  <sodipodi:namedview
     id="namedview10"
     pagecolor="#505050"
     bordercolor="#eeeeee"
     borderopacity="1"
     inkscape:showpageshadow="0"
     inkscape:pageopacity="0"
     inkscape:pagecheckerboard="true"
     inkscape:deskcolor="#505050"
     showgrid="false"
     inkscape:zoom="0.17850303"
     inkscape:cx="-616.23604"
     inkscape:cy="215.68261"
     inkscape:window-width="1280"
     inkscape:window-height="698"
     inkscape:window-x="-6"
     inkscape:window-y="-6"
     inkscape:window-maximized="1"
     inkscape:current-layer="svg8" />
  <g
     id="g6846"
     style="fill:#5d4404;fill-opacity:1">
    <path
       d="m 214.1,381.6 c 10.9,1.3 22.1,2.4 32.9,2.7 v 45.8 c -12,-0.9 -25.9,-3.5 -39.8,-6.8 z"
       id="path423"
       style="fill:#5d4404;fill-opacity:1" />
    <path
       d="m 297.9,381.6 6.9,41.7 c -13.9,3.3 -27.8,5.9 -39.8,6.8 v -45.8 c 10.8,-0.3 22,-1.4 32.9,-2.7 z"
       id="path421"
       style="fill:#5d4404;fill-opacity:1" />
    <path
       d="m 165.7,373.6 c 8.7,1.7 19.2,3.7 30.5,5.5 l -6.6,39.6 c -4.4,-1.2 -8.8,-2.5 -13,-3.8 -7.1,-2.2 -13.7,-4.4 -19.6,-6.4 z"
       id="path419"
       style="fill:#5d4404;fill-opacity:1" />
    <path
       d="m 346.3,373.6 8.7,34.9 c -5.9,2 -12.5,4.2 -19.6,6.4 -4.2,1.3 -8.6,2.6 -13,3.8 l -6.6,-39.6 c 11.3,-1.8 21.8,-3.8 30.5,-5.5 z"
       id="path417"
       style="fill:#5d4404;fill-opacity:1" />
  </g>
  <path
     d="M 263,162.5 V 186 l 1.3,2.1 c 0,0 12.2,20.4 28.7,41 8.2,10.3 17.5,20.7 27.2,28.8 9.8,8.1 20.1,14.6 31.8,14.6 15.6,0 30,-6.1 41.7,-13 l -2.1,15 -54.2,40.7 -81.4,-97.8 -81.4,97.8 -54.2,-40.7 -2.1,-15 c 11.7,6.9 26.1,13 41.7,13 11.7,0 22,-6.5 31.8,-14.6 9.7,-8.1 19,-18.5 27.2,-28.8 16.5,-20.6 28.7,-41 28.7,-41 L 249,186 v -23.5 z"
     id="path413"
     style="fill:#daa520;fill-opacity:1" />
  <path
     d="m 263,130.5 v 14 h -14 v -14 z"
     id="path411"
     style="fill:#daa520;fill-opacity:1" />
  <path
     d="m 140.3,39.85 c 1.5,3.96 3.3,8.48 5.3,13.29 6.2,14.39 13.8,30.71 24,40.79 C 185,107.1 220,112.5 220,112.5 v 18 h 11 v 14 h -11 v 18 h 11 v 18.4 c -1.7,2.8 -11.8,19.1 -26,37 -7.8,9.7 -16.5,19.3 -24.8,26.2 -8.2,6.9 -15.9,10.4 -20.2,10.4 -13,0 -27.8,-7 -39.1,-14.5 -2.2,-1.5 -4.2,-2.9 -6,-4.3 l -9.5,-66.1 32.7,-49 -29.7,-74.38 z"
     id="path409"
     style="fill:#daa520;fill-opacity:1" />
  <path
     d="m 371.7,39.85 31.9,6.38 -29.7,74.37 32.7,49 -9.5,66.1 c -1.8,1.4 -3.8,2.8 -6,4.3 -11.3,7.5 -26.1,14.5 -39.1,14.5 -4.3,0 -12,-3.5 -20.2,-10.4 -8.3,-6.9 -17,-16.5 -24.8,-26.2 -14.2,-17.9 -24.3,-34.2 -26,-37 v -18.4 h 11 v -18 h -11 v -14 h 11 v -18 c 0,0 38.9,-7.7 50.4,-18.57 10.2,-10.11 17.8,-26.43 24,-40.82 2,-4.79 3.8,-9.3 5.3,-13.26 z"
     id="path407"
     style="fill:#daa520;fill-opacity:1" />
  <g
     id="g6866"
     style="fill:#280e0a;fill-opacity:1">
    <path
       d="m 377.7,419.5 11.2,44.7 c 0,0 -56.2,20.2 -85.6,24.3 -31.2,4.3 -63.4,4.3 -94.6,0 -29.4,-4.1 -85.6,-24.3 -85.6,-24.3 l 11.2,-44.7 c 8.1,3.1 20.1,7.4 37.1,12.6 26.3,8.1 58.6,16.4 84.6,16.4 26,0 58.3,-8.3 84.6,-16.4 17,-5.2 29,-9.5 37.1,-12.6 z"
       id="path425"
       style="fill:#280e0a;fill-opacity:1" />
    <path
       d="m 256,245.6 78.6,94.2 33.1,-24.8 -7.4,37 c -13.1,3.1 -64.2,14.5 -104.3,14.5 -40.1,0 -91.2,-11.4 -104.3,-14.5 l -7.4,-37 33.1,24.8 z"
       id="path415"
       style="fill:#280e0a;fill-opacity:1" />
    <path
       d="m 339.8,33.47 14,2.81 c -1.2,3.02 -2.5,6.32 -4,9.75 -5.8,13.63 -14.2,29.31 -20,35.12 -4.9,4.85 -19.8,9.57 -33.1,11.48 -11.2,1.8 -22.4,3.9 -33.7,3.9 V 112.5 H 249 V 96.53 c -12,0.1 -24.2,-2.6 -33.7,-3.9 -13.3,-1.9 -28.2,-6.62 -33.1,-11.45 -5.8,-5.81 -14.2,-21.49 -20,-35.11 -1.5,-3.44 -2.8,-6.75 -4,-9.79 l 14,-2.81 c 8.4,11.37 38,47.06 83.8,47.06 45.8,0 75.4,-35.69 83.8,-47.06 z"
       id="path4"
       style="fill:#280e0a;fill-opacity:1" />
  </g>
</svg>
